<svg width="960" height="720" xmlns="http://www.w3.org/2000/svg" xmlns:xlink="http://www.w3.org/1999/xlink" overflow="hidden"><g><rect x="0" y="0" width="960" height="720" fill="#5D2884"/><path d="M479.904 104C484.482 104 489.137 104.125 493.728 104.37 527.97 106.208 561.077 114.819 592.133 129.966 623.132 145.081 650.261 165.822 672.761 191.6 691.127 212.642 705.818 236.344 716.462 262.128L736.447 221.574C736.779 220.921 737.343 220.419 738.04 220.181 738.736 219.943 739.489 219.993 740.148 220.319L770.457 235.259C771.122 235.585 771.623 236.156 771.855 236.846 772.087 237.542 772.044 238.301 771.699 238.966L722.659 338.457C722.176 339.436 721.198 340 720.182 340 719.78 340 719.379 339.912 718.984 339.73L693.551 327.473 691.912 316.737C690.472 309.697 688.689 302.782 686.582 296.009L679.676 277.141 680.213 277.4C660.021 228.329 622.85 188.696 574.89 165.308 544.9 150.682 512.997 143.262 480.079 143.262 456.111 143.262 432.313 147.27 409.343 155.179 354.614 174.02 310.493 213.05 285.12 265.07 277.116 281.47 271.214 298.762 267.563 316.455 267.256 317.948 265.794 318.908 264.301 318.6L231.201 311.776C230.479 311.632 229.852 311.206 229.451 310.591 229.049 309.976 228.911 309.23 229.056 308.515 233.365 287.604 240.34 267.189 249.78 247.834 264.929 216.775 285.716 189.612 311.559 167.089 336.518 145.345 365.108 128.831 396.541 118.005 423.538 108.71 451.583 104 479.904 104Z" fill="#FFFFFF" fill-rule="evenodd"/><path d="M239.005 379.149C239.673 378.922 240.428 378.947 241.113 379.276L265.752 391.285 267.641 403.659C269.084 410.703 270.868 417.623 272.977 424.4L279.298 441.661 278.614 441.327C296.065 484.671 326.895 520.77 366.912 544.997L375.148 549.484 376.572 550.348 377.974 551.024 384.612 554.64 391.547 557.558 395.501 559.462 399.856 561.055 407.476 564.262 413.288 565.968 415.397 566.74 419.551 567.807 430.973 571.161 435.944 572.02 436.15 572.073 437.007 572.204 455.021 575.316C463.12 576.242 471.297 576.706 479.539 576.706 491.53 576.706 503.483 575.705 515.312 573.714L522.15 572.269 523.436 572.073 525.089 571.648 532.954 569.986 541.456 567.442 544.189 566.74 545.923 566.105 550.346 564.782 559.108 561.283 564.084 559.462 566.123 558.481 570.378 556.781 579.935 551.831 583.014 550.348 584.275 549.583 589.319 546.97 599.867 540.116 600.869 539.507 601.307 539.18 607.072 535.434C618.491 527.186 629.055 517.844 638.637 507.521L646.743 497.876 646.894 497.71 646.987 497.585 652.258 491.314 658.526 482.163 659.36 481.048 659.916 480.135 664.311 473.719 668.99 465.207 670.207 463.204 671.036 461.484 674.7 454.82C675.566 453.044 676.414 451.231 677.236 449.442L678.885 445.201 679.326 444.285 680.715 440.492 686.131 426.56C688.659 418.788 690.744 410.892 692.37 402.924 692.514 402.215 692.941 401.575 693.557 401.173 694.172 400.778 694.92 400.633 695.629 400.778L728.779 407.531C730.279 407.826 731.246 409.288 730.945 410.782 727.102 429.622 721.08 448.105 713.061 465.722 712.1 467.843 711.095 469.977 710.078 472.073 694.907 503.145 674.103 530.333 648.225 552.864 623.239 574.635 594.617 591.153 563.15 601.979 536.124 611.28 508.054 616 479.702 616 475.118 616 470.452 615.862 465.856 615.617 431.582 613.778 398.439 605.161 367.349 590.011 330.514 572.056 299.424 546.462 274.946 513.928 262.111 496.876 251.43 478.173 243.134 458.253L223.624 498.031C223.298 498.696 222.726 499.192 222.035 499.43 221.345 499.669 220.579 499.631 219.925 499.298L189.545 484.418C188.176 483.74 187.611 482.09 188.283 480.715L198.494 459.879C198.537 459.722 198.594 459.559 198.669 459.414L229.973 395.713 237.42 380.538C237.756 379.857 238.337 379.377 239.005 379.149Z" fill="#FFFFFF" fill-rule="evenodd"/><g><g><g><path d="M479.857 379.007 606.307 283.832 606.307 278.305C606.307 272.6 601.681 267.975 595.977 267.975L363.736 267.975C358.032 267.975 353.407 272.6 353.407 278.305L353.407 283.832 479.857 379.007Z" fill="#FFFFFF"/><path d="M486.615 402.06C484.614 403.566 482.234 404.319 479.857 404.319 477.479 404.319 475.099 403.566 473.099 402.06L353.407 311.969 353.407 441.408C353.407 447.113 358.032 451.738 363.736 451.738L595.977 451.738C601.681 451.738 606.307 447.113 606.307 441.408L606.307 311.969 486.615 402.06Z" fill="#FFFFFF"/></g></g></g></g></svg>